<?xml version="1.0" encoding="UTF-8" standalone="no"?>
<svg
   xmlns:dc="http://purl.org/dc/elements/1.1/"
   xmlns:cc="http://creativecommons.org/ns#"
   xmlns:rdf="http://www.w3.org/1999/02/22-rdf-syntax-ns#"
   xmlns:svg="http://www.w3.org/2000/svg"
   xmlns="http://www.w3.org/2000/svg"
   xmlns:sodipodi="http://sodipodi.sourceforge.net/DTD/sodipodi-0.dtd"
   xmlns:inkscape="http://www.inkscape.org/namespaces/inkscape"
   version="1.1"
   id="svg11252"
   height="96"
   width="96"
   inkscape:version="0.48.5 r10040"
   sodipodi:docname="two_bottom.svg">
  <sodipodi:namedview
     pagecolor="#ffffff"
     bordercolor="#666666"
     borderopacity="1"
     objecttolerance="10"
     gridtolerance="10"
     guidetolerance="10"
     inkscape:pageopacity="0"
     inkscape:pageshadow="2"
     inkscape:window-width="1128"
     inkscape:window-height="699"
     id="namedview17"
     showgrid="false"
     inkscape:zoom="4.9166667"
     inkscape:cx="-0.29679046"
     inkscape:cy="22.321351"
     inkscape:window-x="0"
     inkscape:window-y="27"
     inkscape:window-maximized="0"
     inkscape:current-layer="svg11252"
     inkscape:snap-bbox="true"
     inkscape:snap-bbox-midpoints="true"
     inkscape:snap-bbox-edge-midpoints="true"
     inkscape:bbox-nodes="true"
     inkscape:bbox-paths="true"
     showguides="true"
     inkscape:guide-bbox="true" />
  <metadata
     id="metadata19">
    <rdf:RDF>
      <cc:Work
         rdf:about="">
        <dc:format>image/svg+xml</dc:format>
        <dc:type
           rdf:resource="http://purl.org/dc/dcmitype/StillImage" />
        <dc:title />
      </cc:Work>
    </rdf:RDF>
  </metadata>
  <defs
     id="defs11254">
    <filter
       height="1.9652034"
       y="-0.48260167"
       width="2.1066992"
       x="-0.55334961"
       id="filter3844"
       color-interpolation-filters="sRGB">
      <feGaussianBlur
         id="feGaussianBlur3846"
         stdDeviation="1.9461966" />
    </filter>
    <filter
       height="2.4715698"
       y="-0.73578483"
       width="2.6872971"
       x="-0.84364861"
       id="filter3848"
       color-interpolation-filters="sRGB">
      <feGaussianBlur
         id="feGaussianBlur3850"
         stdDeviation="2.967213" />
    </filter>
    <filter
       height="2.4715698"
       y="-0.73578483"
       width="2.6872971"
       x="-0.84364861"
       id="filter3848-1"
       color-interpolation-filters="sRGB">
      <feGaussianBlur
         id="feGaussianBlur3850-2"
         stdDeviation="2.967213" />
    </filter>
    <filter
       height="1.9652034"
       y="-0.48260167"
       width="2.1066992"
       x="-0.55334961"
       id="filter3844-0"
       color-interpolation-filters="sRGB">
      <feGaussianBlur
         id="feGaussianBlur3846-9"
         stdDeviation="1.9461966" />
    </filter>
  </defs>
  <g
     id="g2997"
     transform="translate(-5.5000012,0)">
    <ellipse
       sodipodi:ry="4.839262"
       sodipodi:rx="4.2205434"
       sodipodi:cy="50.281128"
       sodipodi:cx="-14.385203"
       style="opacity:0.66814162;fill:#80b3ff;fill-opacity:1;stroke:none;filter:url(#filter3848)"
       id="path3762-6"
       transform="matrix(1.0074627,0,0,0.90674613,73.992558,43.722097)"
       cx="-14.385203"
       cy="50.281128"
       rx="4.2205434"
       ry="4.839262"
       d="m -10.16466,50.281128 c 0,2.672651 -1.889602,4.839262 -4.220543,4.839262 -2.330942,0 -4.220544,-2.166611 -4.220544,-4.839262 0,-2.672651 1.889602,-4.839262 4.220544,-4.839262 2.330941,0 4.220543,2.166611 4.220543,4.839262 z" />
    <ellipse
       sodipodi:ry="4.839262"
       sodipodi:rx="4.2205434"
       sodipodi:cy="50.281128"
       sodipodi:cx="-14.385203"
       style="fill:#ffffff;fill-opacity:1;stroke:none;filter:url(#filter3844)"
       id="path3762"
       transform="matrix(0.45328331,0,0,0.41143205,66.020573,70.312731)"
       cx="-14.385203"
       cy="50.281128"
       rx="4.2205434"
       ry="4.839262"
       d="m -10.16466,50.281128 c 0,2.672651 -1.889602,4.839262 -4.220543,4.839262 -2.330942,0 -4.220544,-2.166611 -4.220544,-4.839262 0,-2.672651 1.889602,-4.839262 4.220544,-4.839262 2.330941,0 4.220543,2.166611 4.220543,4.839262 z" />
    <ellipse
       sodipodi:ry="4.839262"
       sodipodi:rx="4.2205434"
       sodipodi:cy="50.281128"
       sodipodi:cx="-14.385203"
       style="opacity:0.66814162;fill:#80b3ff;fill-opacity:1;stroke:none;filter:url(#filter3848-1)"
       id="path3762-6-3"
       transform="matrix(1.0074627,0,0,0.90674613,61.992556,43.722098)"
       cx="-14.385203"
       cy="50.281128"
       rx="4.2205434"
       ry="4.839262"
       d="m -10.16466,50.281128 c 0,2.672651 -1.889602,4.839262 -4.220543,4.839262 -2.330942,0 -4.220544,-2.166611 -4.220544,-4.839262 0,-2.672651 1.889602,-4.839262 4.220544,-4.839262 2.330941,0 4.220543,2.166611 4.220543,4.839262 z" />
    <ellipse
       sodipodi:ry="4.839262"
       sodipodi:rx="4.2205434"
       sodipodi:cy="50.281128"
       sodipodi:cx="-14.385203"
       style="fill:#ffffff;fill-opacity:1;stroke:none;filter:url(#filter3844-0)"
       id="path3762-2"
       transform="matrix(0.45328331,0,0,0.41143205,54.020573,70.312731)"
       cx="-14.385203"
       cy="50.281128"
       rx="4.2205434"
       ry="4.839262"
       d="m -10.16466,50.281128 c 0,2.672651 -1.889602,4.839262 -4.220543,4.839262 -2.330942,0 -4.220544,-2.166611 -4.220544,-4.839262 0,-2.672651 1.889602,-4.839262 4.220544,-4.839262 2.330941,0 4.220543,2.166611 4.220543,4.839262 z" />
  </g>
</svg>
