<?xml version="1.0" encoding="UTF-8" standalone="no"?>
<svg
   width="16"
   height="16"
   enable-background="new"
   version="1.1"
   id="svg16"
   sodipodi:docname="general-symbolic.svg"
   inkscape:version="1.2.1 (9c6d41e410, 2022-07-14)"
   xmlns:inkscape="http://www.inkscape.org/namespaces/inkscape"
   xmlns:sodipodi="http://sodipodi.sourceforge.net/DTD/sodipodi-0.dtd"
   xmlns="http://www.w3.org/2000/svg"
   xmlns:svg="http://www.w3.org/2000/svg">
  <defs
     id="defs20" />
  <sodipodi:namedview
     id="namedview18"
     pagecolor="#ffffff"
     bordercolor="#666666"
     borderopacity="1.0"
     inkscape:showpageshadow="2"
     inkscape:pageopacity="0.0"
     inkscape:pagecheckerboard="0"
     inkscape:deskcolor="#d1d1d1"
     showgrid="false"
     inkscape:zoom="24.174578"
     inkscape:cx="13.98163"
     inkscape:cy="8.3765683"
     inkscape:window-width="1500"
     inkscape:window-height="963"
     inkscape:window-x="0"
     inkscape:window-y="0"
     inkscape:window-maximized="1"
     inkscape:current-layer="g14" />
  <g
     fill="#363636"
     id="g14"
     transform="rotate(90,7.75,8.25)">
    <path
       d="m 2.9500144,1 c -0.277,0 -0.5,0.223 -0.5,0.5 v 6.5547 a 2.5,2.5 0 0 1 0.5,-0.054688 2.5,2.5 0 0 1 0.5,0.050781 v -6.5508 c 0,-0.277 -0.223,-0.5 -0.5,-0.5 z m 0.5,11.945 a 2.5,2.5 0 0 1 -0.5,0.05469 2.5,2.5 0 0 1 -0.5,-0.05078 v 1.5508 c 0,0.277 0.223,0.5 0.5,0.5 0.277,0 0.5,-0.223 0.5,-0.5 v -1.5547 z"
       id="path2" />
    <path
       d="M 7.5,1 C 7.223,1 7,1.223 7,1.5 V 3.0547 A 2.5,2.5 0 0 1 7.5,3.000012 2.5,2.5 0 0 1 8,3.050793 v -1.5508 c 0,-0.277 -0.223,-0.5 -0.5,-0.5 z M 8,7.9453 A 2.5,2.5 0 0 1 7.5,7.999988 2.5,2.5 0 0 1 7,7.949207 v 6.5508 c 0,0.277 0.223,0.5 0.5,0.5 0.277,0 0.5,-0.223 0.5,-0.5 v -6.5547 z"
       id="path4" />
    <path
       d="m 12.049986,1.0001482 c -0.277,0 -0.5,0.223 -0.5,0.5 v 6.5547 a 2.5,2.5 0 0 1 0.5,-0.054688 2.5,2.5 0 0 1 0.5,0.050781 v -6.5508 c 0,-0.277 -0.223,-0.5 -0.5,-0.5 z m 0.5,11.9450008 a 2.5,2.5 0 0 1 -0.5,0.05469 2.5,2.5 0 0 1 -0.5,-0.05078 v 1.5508 c 0,0.276999 0.223,0.5 0.5,0.5 0.277,0 0.5,-0.223001 0.5,-0.5 v -1.5547 z"
       id="path6" />
    <circle
       cx="2.9500144"
       cy="10.5"
       id="circle8"
       r="1.5" />
    <circle
       cx="7.5"
       cy="5.5"
       r="1.5"
       id="circle10" />
    <circle
       cx="12.049986"
       cy="10.500149"
       id="circle12"
       r="1.5" />
  </g>
</svg>
