<?xml version="1.0" encoding="UTF-8" standalone="no"?>
<svg
   width="16"
   height="16"
   version="1.1"
   viewBox="0 0 16 16"
   id="svg7"
   sodipodi:docname="unity-symbolic.svg"
   inkscape:version="1.2.2 (b0a8486541, 2022-12-01)"
   inkscape:export-filename="unity-symbolic.png"
   inkscape:export-xdpi="96"
   inkscape:export-ydpi="96"
   xmlns:inkscape="http://www.inkscape.org/namespaces/inkscape"
   xmlns:sodipodi="http://sodipodi.sourceforge.net/DTD/sodipodi-0.dtd"
   xmlns="http://www.w3.org/2000/svg"
   xmlns:svg="http://www.w3.org/2000/svg">
  <sodipodi:namedview
     id="namedview9"
     pagecolor="#ffffff"
     bordercolor="#666666"
     borderopacity="1.0"
     inkscape:pageshadow="2"
     inkscape:pageopacity="0.0"
     inkscape:pagecheckerboard="0"
     showgrid="false"
     inkscape:zoom="44.6875"
     inkscape:cx="5.6391608"
     inkscape:cy="8.0447552"
     inkscape:window-width="1551"
     inkscape:window-height="1288"
     inkscape:window-x="26"
     inkscape:window-y="23"
     inkscape:window-maximized="0"
     inkscape:current-layer="layer2"
     inkscape:showpageshadow="2"
     inkscape:deskcolor="#d1d1d1" />
  <defs
     id="defs3">
    <style
       id="current-color-scheme"
       type="text/css">.ColorScheme-Text { color:#363636; }</style>
  </defs>
  <path
     d="M 2,1 C 0.892,1 0,1.892 0,3 v 9 c 0,1.108 0.892,2 2,2 h 12 c 1.108,0 2,-0.892 2,-2 V 3 C 16,1.892 15.108,1 14,1 Z m 0,1 h 12 c 0.554,0 1,0.446 1,1 H 1 C 1,2.446 1.446,2 2,2 Z M 1,3 h 14 v 9 c 0,0.554 -0.446,1 -1,1 H 2 C 1.446,13 1,12.554 1,12 Z"
     style="fill:currentColor"
     class="ColorScheme-Text"
     id="path5"
     sodipodi:nodetypes="sssssssssssccsccssssc" />
  <g
     inkscape:groupmode="layer"
     id="layer2"
     inkscape:label="Dock">
    <path
       d="m 4.2354894,3.5000001 c 0,-0.5540001 -0.446,-1 -1,-1 -0.554,0 -1,0.446 -1,1 V 11.5 c 0,0.554 0.446,1 1,1 0.554,0 1,-0.446 1,-1 z"
       style="color:#363636;fill:currentColor"
       id="path1311" />
  </g>
</svg>
